<svg xmlns="http://www.w3.org/2000/svg" viewBox="0 0 256 256"><defs><linearGradient id="ivory" x1="0" y1="0" x2="1" y2=".5"><stop stop-color="#fff9dd"/><stop offset=".35" stop-color="#f8ddb1"/><stop offset=".66" stop-color="#d9a870"/><stop offset="1" stop-color="#a36f43"/></linearGradient><linearGradient id="dark" x2="1" y2=".7"><stop stop-color="#698897"/><stop offset=".4" stop-color="#365867"/><stop offset="1" stop-color="#172d3c"/></linearGradient><linearGradient id="rim" x2="0" y2="1"><stop stop-color="#e6f1f7"/><stop offset=".5" stop-color="#9fb4c5"/><stop offset="1" stop-color="#536c83"/></linearGradient><radialGradient id="grass" cx=".3" cy=".2" r=".9"><stop stop-color="#aee269"/><stop offset=".55" stop-color="#6cbc60"/><stop offset="1" stop-color="#378c65"/></radialGradient></defs><g transform="translate(18 146)"><path d="M0 0H220V69H0Z" fill="#986b44"/><path d="M0 0H110V58H0Z" fill="#f6e5c0"/><path d="M110 0H220V58H110Z" fill="#4c887c"/></g><g transform="translate(114 42) scale(.44)"><g fill="url(#ivory)" stroke="#9e714b" stroke-width="2" stroke-linejoin="round"><circle cx="128" cy="70" r="31"/><ellipse cx="119" cy="55" rx="12" ry="8" fill="#fffce9" opacity=".7"/><path d="M110 100H146Q140 141 159 173H97Q116 137 110 100Z"/><rect x="97" y="96" width="62" height="14" rx="7"/><path d="M72 191Q88 174 98 170H158Q173 178 184 191L192 215Q191 227 128 228Q65 227 64 215Z"/><ellipse cx="128" cy="210" rx="63" ry="13" fill="#fff1cf" opacity=".35"/><path d="M75 197Q124 212 183 197" fill="none" stroke="#fff2d2" stroke-width="4" opacity=".6"/></g></g><path d="M39 132Q60 83 111 95" fill="none" stroke="#3eabbd" stroke-width="15" stroke-linecap="round"/><path d="m94 73 25 26-33 8" fill="#3eabbd" stroke="#3eabbd" stroke-width="7" stroke-linejoin="round"/></svg>